<svg width="464" height="306" viewBox="0 0 464 306" fill="none" xmlns="http://www.w3.org/2000/svg">
<path d="M240.7 254.8V138.3L264.6 135.4L268.3 153.7C276.1 141.2 287.5 134.9 302.3 134.9C305.4 134.9 308 135 309.9 135.3L309.5 159.1C306.6 158.7 303.6 158.4 300.5 158.4C290 158.4 282.2 161.2 277 166.8C271.8 172.4 269.2 180.1 269.2 190.1V254.9H240.7V254.8Z" fill="black"/>
<path d="M78.4 118.3V7.5C78.4 7.5 42.5 25.4 42.5 63.4C42.5 101.4 78.4 118.3 78.4 118.3Z" fill="#008CFF"/>
<path d="M78.4 7.5C78.4 7.5 114.3 25.4 114.3 63.4C114.3 101.4 78.4 118.4 78.4 118.4V7.5Z" fill="#0CBFE8"/>
<path d="M162.1 170.4L211.4 142.4C211.4 142.4 194.4 131 177.5 140.6C160.6 150.2 162.1 170.4 162.1 170.4Z" fill="#008CFF"/>
<path d="M211.4 142.4C211.4 142.4 212.5 162.9 195.6 172.5C178.7 182.1 162.1 170.5 162.1 170.5L211.4 142.4Z" fill="#0CBFE8"/>
<path d="M213.7 138C212.8 137.5 192 126.6 174.5 136.7C160.4 144.8 157.6 161.1 157.1 167.9L150.6 171.6C147.4 168.4 142.9 166.4 138 166.4C133.2 166.4 128.8 168.3 125.6 171.4L95.8 154.2C96.1 152.8 96.3 151.4 96.3 149.9C96.3 141.7 90.8 134.8 83.3 132.6V122C92 116.4 119.5 96.2 119.5 63.9C119.5 26.6 82.5 3.30001 80.9 2.30001L78.3 0.700012L75.7 2.30001C74.1 3.30001 37.1 26.6 37.1 63.9C37.1 96.1 64.6 116.4 73.3 122V132.6C65.8 134.8 60.3 141.7 60.3 149.9C60.3 151.4 60.5 152.8 60.8 154.2L31 171.4C27.8 168.3 23.4 166.4 18.6 166.4C8.70001 166.4 0.600006 174.5 0.600006 184.4C0.600006 192.6 6.10001 199.5 13.6 201.7V237.4C6.10001 239.6 0.600006 246.5 0.600006 254.7C0.600006 264.6 8.70001 272.7 18.6 272.7C23.9 272.7 28.6 270.4 31.9 266.8L60.8 283.5C60.5 284.9 60.3 286.3 60.3 287.8C60.3 297.7 68.4 305.8 78.3 305.8C88.2 305.8 96.3 297.7 96.3 287.8C96.3 286.3 96.1 284.9 95.8 283.5L124.7 266.8C128 270.4 132.7 272.7 138 272.7C147.9 272.7 156 264.6 156 254.7C156 246.5 150.5 239.6 143 237.4V201.7C150.5 199.5 156 192.6 156 184.4C156 183 155.8 181.5 155.5 180.2L162 176.5C165.8 178.3 173.3 181.2 181.8 181.2C187 181.2 192.5 180.1 197.9 177C215.4 166.9 216.4 143.4 216.4 142.4L216.5 139.3L213.7 138ZM143 190.8C141.6 191.9 139.9 192.5 138 192.5C137 192.5 136.1 192.3 135.2 192C134.4 191.7 133.7 191.3 133.1 190.8C131.5 189.6 130.4 187.7 130.1 185.6C130.1 185.2 130 184.8 130 184.4C130 184.1 130 183.7 130.1 183.4C130.5 180.5 132.4 178 135.1 176.9C136 176.5 137 176.3 138 176.3C139.1 176.3 140.2 176.5 141.1 176.9C144 178.1 146 181 146 184.3C146 184.8 146 185.2 145.9 185.6C145.6 187.8 144.6 189.5 143 190.8ZM146.1 254.7C146.1 259.1 142.5 262.7 138.1 262.7C136.6 262.7 135.1 262.3 133.9 261.5C131.6 260.1 130.1 257.6 130.1 254.7C130.1 254.6 130.1 254.6 130.1 254.5C130.1 253.6 130.3 252.8 130.6 252C131.1 250.6 132 249.3 133.2 248.4C134.2 247.6 135.4 247 136.8 246.8C137.2 246.7 137.7 246.7 138.2 246.7C140.1 246.7 141.8 247.4 143.2 248.4C144.9 249.9 146.1 252.2 146.1 254.7ZM133.1 237.5C130.7 238.2 128.4 239.4 126.5 241L96 223.4C96.2 222.3 96.3 221.1 96.3 219.9C96.3 218.2 96 216.5 95.6 214.9L125.6 197.6C127.7 199.6 130.2 201.1 133 201.9V237.5H133.1ZM78.4 295.8C74.4 295.8 71.1 292.9 70.5 289C70.4 288.6 70.4 288.2 70.4 287.8C70.4 284.4 72.5 281.6 75.4 280.4C76.3 280 77.4 279.8 78.4 279.8C79.5 279.8 80.5 280 81.4 280.4C84.3 281.6 86.4 284.5 86.4 287.8C86.4 288.2 86.4 288.6 86.3 289C85.7 292.9 82.4 295.8 78.4 295.8ZM60.8 223.4L30.3 241C28.4 239.4 26.2 238.2 23.7 237.5V201.8C26.6 201 29.1 199.5 31.2 197.5L61.2 214.8C60.7 216.4 60.5 218.1 60.5 219.9C60.4 221 60.5 222.2 60.8 223.4ZM26.8 254.7C26.8 257.6 25.3 260.1 23 261.5C21.8 262.3 20.3 262.7 18.8 262.7C14.4 262.7 10.8 259.1 10.8 254.7C10.8 252.2 12 249.9 13.8 248.4C15.2 247.3 16.9 246.7 18.8 246.7C19.3 246.7 19.7 246.7 20.2 246.8C21.5 247 22.7 247.6 23.8 248.4C25 249.3 25.9 250.6 26.4 252C26.7 252.8 26.9 253.6 26.9 254.5C26.8 254.6 26.8 254.7 26.8 254.7ZM10.7 184.5C10.7 180.1 14.3 176.5 18.7 176.5C19.7 176.5 20.7 176.7 21.6 177.1C24.2 178.1 26.2 180.5 26.6 183.4C26.7 183.8 26.7 184.2 26.7 184.6C26.7 185 26.7 185.4 26.6 185.8C26.3 187.9 25.2 189.7 23.6 191C23 191.5 22.3 191.9 21.6 192.1C20.7 192.5 19.7 192.7 18.6 192.7C16.7 192.7 15 192.1 13.6 191C11.9 189.3 10.7 187 10.7 184.5ZM73.4 143.7C74.8 142.6 76.5 142 78.4 142C80.3 142 82 142.7 83.4 143.7C85 145 86.1 146.8 86.4 148.8C86.5 149.2 86.5 149.6 86.5 150C86.5 152.5 85.3 154.8 83.4 156.3C82.8 156.8 82.1 157.2 81.4 157.4C80.5 157.8 79.5 158 78.4 158C77.4 158 76.4 157.8 75.4 157.4C74.7 157.1 74 156.7 73.4 156.3C71.5 154.8 70.3 152.6 70.3 150C70.3 149.6 70.3 149.2 70.4 148.8C70.7 146.8 71.8 145 73.4 143.7ZM86.4 220.1C86.3 222.5 85.1 224.7 83.4 226.1C83 226.4 82.6 226.6 82.2 226.9C81.1 227.5 79.8 227.9 78.4 227.9C77.1 227.9 75.8 227.6 74.7 227C74.3 226.8 73.8 226.5 73.5 226.2C71.7 224.8 70.5 222.6 70.5 220.1C70.5 220 70.5 219.9 70.5 219.9C70.5 219.2 70.6 218.5 70.8 217.8C71.2 216.1 72.2 214.6 73.6 213.6C74.5 212.9 75.5 212.4 76.6 212.1C77.2 211.9 77.9 211.8 78.6 211.8C79.3 211.8 80 211.9 80.7 212.1C81.8 212.4 82.7 212.9 83.6 213.5C84.9 214.6 85.9 216 86.3 217.6C86.5 218.3 86.6 219 86.6 219.8C86.4 219.9 86.4 220 86.4 220.1ZM120.6 180.1C120.3 181.5 120.1 182.9 120.1 184.4C120.1 185.9 120.3 187.4 120.7 188.9L90.4 206.4C88.4 204.6 86.1 203.3 83.4 202.5V167.3C86.3 166.5 88.8 165 90.9 163L120.6 180.1ZM47.1 64.1C47.1 37.7 70.4 18.5 78.3 12.8C86.3 18.5 109.5 37.6 109.5 64.1C109.5 86.2 93.1 102.3 83.2 109.9V68.1C83.2 65.3 81 63.1 78.2 63.1C75.5 63.1 73.2 65.3 73.2 68.1V110C63.5 102.3 47.1 86.3 47.1 64.1ZM65.9 163C68 165 70.5 166.5 73.4 167.3V202.5C70.8 203.2 68.5 204.5 66.5 206.3L36.2 188.8C36.5 187.4 36.7 186 36.7 184.5C36.7 183 36.5 181.6 36.2 180.2L65.9 163ZM36.4 257.9C36.6 256.9 36.7 255.8 36.7 254.8C36.7 252.9 36.4 251 35.8 249.3L65.4 232.3C67.6 234.6 70.3 236.3 73.4 237.2V270.6C70.5 271.4 68 272.9 65.9 275L36.4 257.9ZM90.9 274.9C88.8 272.9 86.3 271.4 83.4 270.5V237.1C86.5 236.2 89.3 234.5 91.4 232.2L120.9 249.2C120.3 250.9 120 252.8 120 254.7C120 255.8 120.1 256.8 120.3 257.8L90.9 274.9ZM192.9 168.5C186.3 172.3 178.8 171.6 173.2 170.1L183.1 164.4C185.5 163 186.3 160 184.9 157.6C183.5 155.2 180.5 154.4 178.1 155.8L168.2 161.5C169.7 155.9 172.8 149.1 179.4 145.3C188.9 139.8 200.6 143.3 206 145.4C205.3 151.1 202.5 163 192.9 168.5Z" fill="black"/>
<path d="M330.5 108.6C330.5 98.9 335.9 94 346.7 94C357.5 94 362.9 98.9 362.9 108.6C362.9 113.2 361.5 116.8 358.8 119.4C356.1 122 352 123.3 346.6 123.3C335.9 123.3 330.5 118.4 330.5 108.6ZM361.6 254.8H331.8V136.9H361.6V254.8Z" fill="black"/>
<path d="M453.4 159.3H427.6V254.8H397.8V159.3H381.4V144.9L397.8 136.9V128.9C397.8 116.4 400.9 107.3 407 101.6C413.1 95.9 423 93 436.5 93C446.8 93 456 94.5 464 97.6L456.4 119.5C450.4 117.6 444.9 116.7 439.8 116.7C435.6 116.7 432.5 118 430.6 120.5C428.7 123 427.8 126.2 427.8 130.1V136.9H453.6V159.3H453.4Z" fill="black"/>
</svg>
